<svg width="70" height="70" viewBox="0 0 70 70" fill="none" xmlns="http://www.w3.org/2000/svg">
<rect width="70" height="70" rx="35" fill="white" fill-opacity="0.05"/>
<rect x="0.5" y="0.5" width="69" height="69" rx="34.5" stroke="#F4F4F4" stroke-opacity="0.5"/>
<path d="M34.1283 46.6367C33.3471 45.4974 32.4519 44.2116 31.4428 42.7793C30.4662 41.347 29.7663 40.3379 29.3432 39.752C28.92 39.166 28.4317 38.4499 27.8783 37.6035C27.3249 36.7246 26.9506 36.1061 26.7553 35.748C26.5925 35.39 26.3972 34.9342 26.1693 34.3809C25.974 33.8275 25.8438 33.3555 25.7787 32.9648C25.7462 32.5417 25.7299 32.0534 25.7299 31.5C25.7299 28.8958 26.6413 26.6823 28.4643 24.8594C30.2872 23.0365 32.5007 22.125 35.1049 22.125C37.709 22.125 39.9226 23.0365 41.7455 24.8594C43.5684 26.6823 44.4799 28.8958 44.4799 31.5C44.4799 32.0534 44.4473 32.5417 44.3822 32.9648C44.3497 33.3555 44.2195 33.8275 43.9916 34.3809C43.7963 34.9342 43.601 35.39 43.4057 35.748C43.2429 36.1061 42.8848 36.7246 42.3314 37.6035C41.7781 38.4499 41.2898 39.166 40.8666 39.752C40.4434 40.3379 39.7273 41.347 38.7182 42.7793C37.7416 44.2116 36.8627 45.4974 36.0814 46.6367C35.8536 46.9622 35.5281 47.125 35.1049 47.125C34.6817 47.125 34.3562 46.9622 34.1283 46.6367ZM32.3217 34.2832C33.1029 35.0319 34.0307 35.4062 35.1049 35.4062C36.1791 35.4062 37.0906 35.0319 37.8393 34.2832C38.6205 33.502 39.0111 32.5742 39.0111 31.5C39.0111 30.4258 38.6205 29.5143 37.8393 28.7656C37.0906 27.9844 36.1791 27.5938 35.1049 27.5938C34.0307 27.5938 33.1029 27.9844 32.3217 28.7656C31.573 29.5143 31.1986 30.4258 31.1986 31.5C31.1986 32.5742 31.573 33.502 32.3217 34.2832Z" fill="white"/>
</svg>
