<svg width="70" height="70" viewBox="0 0 70 70" fill="none" xmlns="http://www.w3.org/2000/svg">
<rect width="70" height="70" rx="35" fill="white" fill-opacity="0.05"/>
<rect x="0.5" y="0.5" width="69" height="69" rx="34.5" stroke="#F4F4F4" stroke-opacity="0.5"/>
<path d="M46.357 46.0209C46.2376 46.6416 45.8687 46.9573 45.2503 46.9681C39.0013 47.0772 33.6249 44.9572 29.1212 40.608C24.6176 36.2589 22.3112 30.9598 22.2021 24.7107C22.1913 24.0923 22.494 23.7126 23.1101 23.5716L28.167 22.3113C28.7826 22.1378 29.2259 22.358 29.4971 22.9718L31.9359 28.3988C32.1729 28.9156 32.0669 29.3732 31.618 29.7718L28.7306 32.2151C29.6429 34.1201 30.8604 35.7918 32.3831 37.2303C33.9064 38.7013 35.6196 39.8597 37.5227 40.7055L39.9126 37.7337C40.2626 37.2718 40.7163 37.1499 41.2736 37.3681L46.7824 39.616C47.3728 39.8662 47.592 40.3019 47.4401 40.9231L46.357 46.0209Z" fill="white"/>
</svg>
