<svg width="108" height="108" viewBox="0 0 108 108" fill="none" xmlns="http://www.w3.org/2000/svg">
<rect x="9" y="9" width="90" height="90" rx="45" fill="#2FC7A1"/>
<g clip-path="url(#clip0_1_1008)">
<path d="M50.3097 69.0401C51.1631 69.0401 51.8831 68.7201 52.4697 68.0801C53.0564 67.4401 53.3497 66.6667 53.3497 65.7601C53.3497 64.8534 53.0564 64.1067 52.4697 63.5201C51.8831 62.9334 51.1364 62.6401 50.2297 62.6401C49.3231 62.6401 48.5764 62.9334 47.9897 63.5201C47.4031 64.1067 47.1097 64.8534 47.1097 65.7601C47.1097 66.6667 47.4031 67.4401 47.9897 68.0801C48.5764 68.7201 49.3497 69.0401 50.3097 69.0401ZM50.3097 63.9201C50.7364 63.9201 51.1364 64.1067 51.5097 64.4801C51.8831 64.8534 52.0697 65.2801 52.0697 65.7601C52.0697 66.2401 51.8831 66.6667 51.5097 67.0401C51.1364 67.4134 50.7097 67.6001 50.2297 67.6001C49.7497 67.6001 49.3231 67.4134 48.9497 67.0401C48.5764 66.6667 48.3897 66.2401 48.3897 65.7601C48.3897 65.2801 48.5764 64.8534 48.9497 64.4801C49.3231 64.1067 49.7764 63.9201 50.3097 63.9201ZM44.8697 71.6001V75.9201C44.8697 76.1334 44.9497 76.2934 45.1097 76.4001C45.2697 76.5067 45.4031 76.5601 45.5097 76.5601H54.9497C55.0564 76.5601 55.1897 76.5067 55.3497 76.4001C55.5097 76.2934 55.5897 76.1334 55.5897 75.9201V71.6001C55.5897 70.7467 55.2964 70.0267 54.7097 69.4401C54.1231 68.8534 53.4564 68.6134 52.7097 68.7201C52.3897 68.6134 52.1764 68.6667 52.0697 68.8801C51.9631 69.0934 51.8031 69.2534 51.5897 69.3601C51.0564 69.7867 50.4964 69.9467 49.9097 69.8401C49.3231 69.7334 48.8164 69.4134 48.3897 68.8801C48.2831 68.6667 48.0697 68.6134 47.7497 68.7201C47.0031 68.6134 46.3364 68.8534 45.7497 69.4401C45.1631 70.0267 44.8697 70.7467 44.8697 71.6001ZM46.3097 71.6001C46.3097 71.1734 46.4164 70.8267 46.6297 70.5601C46.8431 70.2934 47.1631 70.1067 47.5897 70.0001C48.2297 70.7467 49.1097 71.1201 50.2297 71.1201C51.3497 71.1201 52.2297 70.7467 52.8697 70.0001C53.2964 70.1067 53.6164 70.2934 53.8297 70.5601C54.0431 70.8267 54.1497 71.1734 54.1497 71.6001V75.2801H46.3097V71.6001ZM61.5097 69.0401C62.3631 69.0401 63.1097 68.7201 63.7497 68.0801C64.3897 67.4401 64.7097 66.6667 64.7097 65.7601C64.7097 64.8534 64.3897 64.1067 63.7497 63.5201C63.1097 62.9334 62.3364 62.6401 61.4297 62.6401C60.5231 62.6401 59.7764 62.9334 59.1897 63.5201C58.6031 64.1067 58.3097 64.8534 58.3097 65.7601C58.3097 66.6667 58.6297 67.4401 59.2697 68.0801C59.9097 68.7201 60.6564 69.0401 61.5097 69.0401ZM61.5097 63.9201C61.9364 63.9201 62.3364 64.1067 62.7097 64.4801C63.0831 64.8534 63.2697 65.2801 63.2697 65.7601C63.2697 66.2401 63.0831 66.6667 62.7097 67.0401C62.3364 67.4134 61.9097 67.6001 61.4297 67.6001C60.9497 67.6001 60.5231 67.4134 60.1497 67.0401C59.7764 66.6667 59.5897 66.2401 59.5897 65.7601C59.5897 65.2801 59.7764 64.8534 60.1497 64.4801C60.5231 64.1067 60.9764 63.9201 61.5097 63.9201ZM56.2297 71.6001V75.9201C56.2297 76.1334 56.2831 76.2934 56.3897 76.4001C56.4964 76.5067 56.6564 76.5601 56.8697 76.5601H66.1497C66.3631 76.5601 66.5231 76.5067 66.6297 76.4001C66.7364 76.2934 66.7897 76.1334 66.7897 75.9201V71.6001C66.7897 70.7467 66.4964 70.0534 65.9097 69.5201C65.3231 68.9867 64.6564 68.7201 63.9097 68.7201C63.6964 68.6134 63.5097 68.6667 63.3497 68.8801C63.1897 69.0934 63.0031 69.2534 62.7897 69.3601C62.2564 69.7867 61.6964 69.9467 61.1097 69.8401C60.5231 69.7334 60.0164 69.4134 59.5897 68.8801C59.4831 68.6667 59.3231 68.6134 59.1097 68.7201C58.2564 68.6134 57.5631 68.8534 57.0297 69.4401C56.4964 70.0267 56.2297 70.7467 56.2297 71.6001ZM57.5097 71.6001C57.5097 71.1734 57.6164 70.8267 57.8297 70.5601C58.0431 70.2934 58.3631 70.1067 58.7897 70.0001C59.4297 70.6401 60.2031 71.0134 61.1097 71.1201C62.0164 71.2267 62.8431 71.0134 63.5897 70.4801L64.2297 70.0001C64.5497 70.1067 64.8431 70.2934 65.1097 70.5601C65.3764 70.8267 65.5097 71.1734 65.5097 71.6001V75.2801H57.5097V71.6001ZM72.7097 69.0401C73.5631 69.0401 74.3097 68.7201 74.9497 68.0801C75.5897 67.4401 75.9097 66.6667 75.9097 65.7601C75.9097 64.8534 75.5897 64.1067 74.9497 63.5201C74.3097 62.9334 73.5631 62.6401 72.7097 62.6401C71.8564 62.6401 71.1097 62.9334 70.4697 63.5201C69.8297 64.1067 69.5097 64.8534 69.5097 65.7601C69.5097 66.6667 69.8297 67.4401 70.4697 68.0801C71.1097 68.7201 71.8564 69.0401 72.7097 69.0401ZM72.7097 63.9201C73.2431 63.9201 73.6697 64.1067 73.9897 64.4801C74.3097 64.8534 74.4697 65.2801 74.4697 65.7601C74.4697 66.2401 74.3097 66.6667 73.9897 67.0401C73.6697 67.4134 73.2431 67.6001 72.7097 67.6001C72.1764 67.6001 71.7497 67.4134 71.4297 67.0401C71.1097 66.6667 70.9497 66.2401 70.9497 65.7601C70.9497 65.2801 71.1097 64.8534 71.4297 64.4801C71.7497 64.1067 72.1764 63.9201 72.7097 63.9201ZM75.1097 68.7201C74.8964 68.6134 74.7097 68.6667 74.5497 68.8801C74.3897 69.0934 74.2031 69.2534 73.9897 69.3601C73.5631 69.7867 73.0297 69.9467 72.3897 69.8401C71.7497 69.7334 71.2164 69.4134 70.7897 68.8801C70.6831 68.6667 70.5231 68.6134 70.3097 68.7201C69.4564 68.7201 68.7364 68.9867 68.1497 69.5201C67.5631 70.0534 67.2697 70.7467 67.2697 71.6001V75.9201C67.2697 76.1334 67.3497 76.2934 67.5097 76.4001C67.6697 76.5067 67.8564 76.5601 68.0697 76.5601H77.3497C77.5631 76.5601 77.7231 76.5067 77.8297 76.4001C77.9364 76.2934 77.9897 76.1334 77.9897 75.9201V71.6001C77.9897 70.7467 77.6964 70.0267 77.1097 69.4401C76.5231 68.8534 75.8564 68.6134 75.1097 68.7201ZM75.4297 70.0001C75.7497 70.1067 76.0164 70.2934 76.2297 70.5601C76.4431 70.8267 76.5497 71.1734 76.5497 71.6001V75.2801H68.7097V71.6001C68.7097 71.1734 68.8164 70.8267 69.0297 70.5601C69.2431 70.2934 69.5631 70.1067 69.9897 70.0001C70.7364 70.7467 71.6431 71.1201 72.7097 71.1201C73.7764 71.1201 74.6831 70.7467 75.4297 70.0001ZM38.4697 40.5601C39.5364 40.5601 40.4431 40.1601 41.1897 39.3601C41.9364 38.5601 42.3097 37.6267 42.3097 36.5601V35.2801C42.3097 34.2134 41.9364 33.3067 41.1897 32.5601C40.4431 31.8134 39.5364 31.4401 38.4697 31.4401C37.4031 31.4401 36.4964 31.8134 35.7497 32.5601C35.0031 33.3067 34.6297 34.2134 34.6297 35.2801V36.5601C34.6297 37.6267 35.0031 38.5601 35.7497 39.3601C36.4964 40.1601 37.4031 40.5601 38.4697 40.5601ZM35.9097 35.2801C35.9097 34.6401 36.1764 34.0801 36.7097 33.6001C37.2431 33.1201 37.8564 32.8801 38.5497 32.8801C39.2431 32.8801 39.8297 33.1201 40.3097 33.6001C40.7897 34.0801 41.0297 34.6401 41.0297 35.2801V36.5601C41.0297 37.3067 40.7897 37.9201 40.3097 38.4001C39.8297 38.8801 39.2431 39.1201 38.5497 39.1201C37.8564 39.1201 37.2431 38.8801 36.7097 38.4001C36.1764 37.9201 35.9097 37.3067 35.9097 36.5601V35.2801ZM29.9897 54.6401C29.9897 55.3867 30.2297 55.9734 30.7097 56.4001C31.1897 56.8267 31.7497 57.0401 32.3897 57.0401C32.9231 57.0401 33.3497 56.9334 33.6697 56.7201L34.1497 71.4401C34.1497 71.9734 34.3097 72.4534 34.6297 72.8801C34.9497 73.3067 35.3497 73.6001 35.8297 73.7601C36.3097 73.9201 36.7897 73.9467 37.2697 73.8401C37.7497 73.7334 38.2031 73.4667 38.6297 73.0401C38.9497 73.4667 39.3764 73.7334 39.9097 73.8401C40.4431 73.9467 40.9497 73.9201 41.4297 73.7601C41.9097 73.6001 42.3097 73.3067 42.6297 72.8801C42.9497 72.4534 43.1097 71.9734 43.1097 71.4401L43.5897 56.8801C43.9097 57.0934 44.2831 57.2001 44.7097 57.2001C45.3497 57.2001 45.9097 56.9601 46.3897 56.4801C46.8697 56.0001 47.1097 55.3867 47.1097 54.6401V44.8801C47.2164 43.8134 46.9231 42.8534 46.2297 42.0001C45.5364 41.1467 44.6564 40.6667 43.5897 40.5601H41.5097C41.2964 40.5601 41.1364 40.6134 41.0297 40.7201L38.6297 42.9601L36.2297 40.7201C36.1231 40.6134 35.9631 40.5601 35.7497 40.5601H33.9897C32.9231 40.5601 31.9897 40.9334 31.1897 41.6801C30.3897 42.4267 29.9897 43.3867 29.9897 44.5601V44.8801V54.6401ZM40.5497 72.5601C40.2297 72.5601 39.9364 72.4534 39.6697 72.2401C39.4031 72.0267 39.2697 71.7601 39.2697 71.4401V56.8801C39.2697 56.7734 39.2164 56.6401 39.1097 56.4801C39.0031 56.3201 38.8431 56.2401 38.6297 56.2401C38.4164 56.2401 38.2564 56.3201 38.1497 56.4801C38.0431 56.6401 37.9897 56.7734 37.9897 56.8801V71.4401C37.9897 71.7601 37.8564 72.0267 37.5897 72.2401C37.3231 72.4534 37.0297 72.5601 36.7097 72.5601C36.3897 72.5601 36.0964 72.4534 35.8297 72.2401C35.5631 72.0267 35.4297 71.7601 35.4297 71.4401L34.9497 54.4801H42.1497L41.6697 71.4401C41.6697 71.7601 41.5631 72.0267 41.3497 72.2401C41.1364 72.4534 40.8697 72.5601 40.5497 72.5601ZM32.0697 42.6401C32.6031 42.1067 33.2431 41.8401 33.9897 41.8401H35.4297L38.1497 44.4001L41.8297 41.8401H43.2697C44.0164 41.8401 44.6564 42.1601 45.1897 42.8001C45.7231 43.4401 45.9364 44.1334 45.8297 44.8801V54.6401C45.8297 54.9601 45.7231 55.2267 45.5097 55.4401C45.2964 55.6534 45.0297 55.7601 44.7097 55.7601C44.3897 55.7601 44.1231 55.6534 43.9097 55.4401C43.6964 55.2267 43.5897 54.9601 43.5897 54.6401V48.0801C43.5897 47.8667 43.5364 47.7067 43.4297 47.6001C43.3231 47.4934 43.1631 47.4401 42.9497 47.4401C42.7364 47.4401 42.5764 47.4934 42.4697 47.6001C42.3631 47.7067 42.3097 47.8667 42.3097 48.0801V53.2001H34.9497V48.0801C34.9497 47.8667 34.8697 47.7067 34.7097 47.6001C34.5497 47.4934 34.3897 47.4401 34.2297 47.4401C34.0697 47.4401 33.9097 47.4934 33.7497 47.6001C33.5897 47.7067 33.5097 47.8667 33.5097 48.0801V54.6401C33.5097 54.9601 33.4031 55.2267 33.1897 55.4401C32.9764 55.6534 32.7097 55.7601 32.3897 55.7601C32.1764 55.7601 31.9631 55.6534 31.7497 55.4401C31.5364 55.2267 31.4297 54.9601 31.4297 54.6401V44.5601C31.3231 43.8134 31.5364 43.1734 32.0697 42.6401ZM48.5497 37.6801H49.6697V51.7601C49.6697 52.5067 49.9364 53.1467 50.4697 53.6801C51.0031 54.2134 51.6431 54.4801 52.3897 54.4801H61.0297L56.3897 58.6401C56.0697 58.8534 55.9631 59.1201 56.0697 59.4401C56.1764 59.7601 56.3631 59.9201 56.6297 59.9201C56.8964 59.9201 57.0831 59.8667 57.1897 59.7601L62.4697 54.9601L67.7497 59.7601C67.8564 59.8667 68.0164 59.9201 68.2297 59.9201C68.4431 59.9201 68.6031 59.8401 68.7097 59.6801C68.8164 59.5201 68.8697 59.3334 68.8697 59.1201C68.8697 58.9067 68.8164 58.7467 68.7097 58.6401L63.9097 54.4801H72.5497C73.2964 54.4801 73.9364 54.2134 74.4697 53.6801C75.0031 53.1467 75.2697 52.5067 75.2697 51.7601V37.6801H76.3897C76.6031 37.6801 76.7631 37.6001 76.8697 37.4401C76.9764 37.2801 77.0297 37.1467 77.0297 37.0401V32.2401C77.0297 32.0267 76.9764 31.8667 76.8697 31.7601C76.7631 31.6534 76.6031 31.6001 76.3897 31.6001H48.5497C48.4431 31.6001 48.3097 31.6534 48.1497 31.7601C47.9897 31.8667 47.9097 32.0267 47.9097 32.2401V37.0401C47.9097 37.1467 47.9897 37.2801 48.1497 37.4401C48.3097 37.6001 48.4431 37.6801 48.5497 37.6801ZM73.8297 51.7601C73.8297 52.0801 73.6964 52.3734 73.4297 52.6401C73.1631 52.9067 72.8697 53.0401 72.5497 53.0401H52.3897C52.0697 53.0401 51.7764 52.9067 51.5097 52.6401C51.2431 52.3734 51.1097 52.0801 51.1097 51.7601V37.6801H73.8297V51.7601ZM49.3497 33.0401H75.7497V36.2401H49.3497V33.0401ZM54.1497 43.1201H66.7897C67.0031 43.1201 67.1897 43.0401 67.3497 42.8801C67.5097 42.7201 67.5897 42.5601 67.5897 42.4001C67.5897 42.2401 67.5097 42.0801 67.3497 41.9201C67.1897 41.7601 67.0031 41.6801 66.7897 41.6801H54.1497C54.0431 41.6801 53.9097 41.7601 53.7497 41.9201C53.5897 42.0801 53.5097 42.2401 53.5097 42.4001C53.5097 42.5601 53.5897 42.7201 53.7497 42.8801C53.9097 43.0401 54.0431 43.1201 54.1497 43.1201ZM54.1497 45.8401H70.7897C71.0031 45.8401 71.1897 45.7601 71.3497 45.6001C71.5097 45.4401 71.5897 45.2801 71.5897 45.1201C71.5897 44.9601 71.5097 44.8001 71.3497 44.6401C71.1897 44.4801 71.0031 44.4001 70.7897 44.4001H54.1497C54.0431 44.4001 53.9097 44.4801 53.7497 44.6401C53.5897 44.8001 53.5097 44.9601 53.5097 45.1201C53.5097 45.2801 53.5897 45.4401 53.7497 45.6001C53.9097 45.7601 54.0431 45.8401 54.1497 45.8401ZM54.1497 48.4001H70.7897C71.0031 48.4001 71.1897 48.3467 71.3497 48.2401C71.5097 48.1334 71.5897 47.9734 71.5897 47.7601C71.5897 47.5467 71.5097 47.3867 71.3497 47.2801C71.1897 47.1734 71.0031 47.1201 70.7897 47.1201H54.1497C54.0431 47.1201 53.9097 47.1734 53.7497 47.2801C53.5897 47.3867 53.5097 47.5467 53.5097 47.7601C53.5097 47.9734 53.5897 48.1334 53.7497 48.2401C53.9097 48.3467 54.0431 48.4001 54.1497 48.4001Z" fill="white"/>
</g>
<rect x="0.5" y="0.5" width="107" height="107" rx="53.5" stroke="#2FC7A1" stroke-dasharray="3 2"/>
<defs>
<clipPath id="clip0_1_1008">
<rect width="48.02" height="48" fill="white" transform="matrix(1 0 0 -1 29.98 78)"/>
</clipPath>
</defs>
</svg>
