<svg width="40" height="40" viewBox="0 0 40 40" fill="none" xmlns="http://www.w3.org/2000/svg">
<rect width="40" height="40" rx="20" fill="#FE543D"/>
<path d="M24.3501 22.75C25.2355 22.75 25.9881 23.0599 26.6079 23.6797C27.2277 24.2995 27.5376 25.0521 27.5376 25.9375C27.5376 26.8229 27.2277 27.5755 26.6079 28.1953C25.9881 28.8151 25.2355 29.125 24.3501 29.125C23.4646 29.125 22.712 28.8151 22.0922 28.1953C21.4725 27.5755 21.1626 26.8229 21.1626 25.9375C21.1626 25.694 21.1847 25.4616 21.229 25.2402L17.8422 23.1152C17.2667 23.5801 16.6027 23.8125 15.8501 23.8125C14.9646 23.8125 14.212 23.5026 13.5922 22.8828C12.9725 22.263 12.6626 21.5104 12.6626 20.625C12.6626 19.7396 12.9725 18.987 13.5922 18.3672C14.212 17.7474 14.9646 17.4375 15.8501 17.4375C16.6027 17.4375 17.2667 17.6699 17.8422 18.1348L21.229 16.0098C21.1847 15.7884 21.1626 15.556 21.1626 15.3125C21.1626 14.4271 21.4725 13.6745 22.0922 13.0547C22.712 12.4349 23.4646 12.125 24.3501 12.125C25.2355 12.125 25.9881 12.4349 26.6079 13.0547C27.2277 13.6745 27.5376 14.4271 27.5376 15.3125C27.5376 16.1979 27.2277 16.9505 26.6079 17.5703C25.9881 18.1901 25.2355 18.5 24.3501 18.5C23.5975 18.5 22.9334 18.2676 22.3579 17.8027L18.9712 19.9277C19.0154 20.1491 19.0376 20.3815 19.0376 20.625C19.0376 20.8685 19.0154 21.1009 18.9712 21.3223L22.3579 23.4473C22.9334 22.9824 23.5975 22.75 24.3501 22.75Z" fill="#0E2A46"/>
</svg>
